<?xml version="1.0" encoding="UTF-8" standalone="no"?>
<!-- Created with Inkscape (http://www.inkscape.org/) -->

<svg
   xmlns:dc="http://purl.org/dc/elements/1.1/"
   xmlns:cc="http://creativecommons.org/ns#"
   xmlns:rdf="http://www.w3.org/1999/02/22-rdf-syntax-ns#"
   xmlns:svg="http://www.w3.org/2000/svg"
   xmlns="http://www.w3.org/2000/svg"
   xmlns:sodipodi="http://sodipodi.sourceforge.net/DTD/sodipodi-0.dtd"
   xmlns:inkscape="http://www.inkscape.org/namespaces/inkscape"
   version="1.0"
   width="512"
   height="183.39903"
   id="svg2407"
   sodipodi:docname="titulo.svg"
   inkscape:version="0.92.1 unknown">
  <metadata
     id="metadata36">
    <rdf:RDF>
      <cc:Work
         rdf:about="">
        <dc:format>image/svg+xml</dc:format>
        <dc:type
           rdf:resource="http://purl.org/dc/dcmitype/StillImage" />
        <dc:title></dc:title>
      </cc:Work>
    </rdf:RDF>
  </metadata>
  <sodipodi:namedview
     pagecolor="#ffffff"
     bordercolor="#666666"
     borderopacity="1"
     objecttolerance="10"
     gridtolerance="10"
     guidetolerance="10"
     inkscape:pageopacity="0"
     inkscape:pageshadow="2"
     inkscape:window-width="1600"
     inkscape:window-height="872"
     id="namedview34"
     showgrid="false"
     fit-margin-top="0"
     fit-margin-left="0"
     fit-margin-right="0"
     fit-margin-bottom="0"
     inkscape:zoom="0.84317993"
     inkscape:cx="569.75588"
     inkscape:cy="130.37994"
     inkscape:window-x="0"
     inkscape:window-y="0"
     inkscape:window-maximized="1"
     inkscape:current-layer="svg2407" />
  <defs
     id="defs3" />
  <g
     id="layer1"
     transform="matrix(0.5024148,0,0,0.5024148,-8.361161,-95.223722)">
    <g
       transform="matrix(-0.2427368,0.7739284,-0.7739284,-0.2427368,526.36044,-298.84784)"
       id="g3260">
      <g
         transform="matrix(0.156914,0.2177464,-0.2177464,0.156914,908.3931,117.2101)"
         id="g3278"
         style="stroke:#000000;stroke-width:2.64037442;stroke-miterlimit:4;stroke-dasharray:none;stroke-opacity:1">
        <path
           d="m 191.96697,107.04508 c 8.6687,25.35135 12.31815,39.42521 50.12951,61.13372 47.94336,26.12749 155.01503,82.82974 232.06974,125.0552 34.24135,18.06742 55.0109,37.69004 78.07489,65.58352 15.78815,22.72796 25.25393,52.15226 19.66463,79.77606 -4.40247,14.6441 -6.50213,26.98458 -7.57332,3.69233 -5.44656,-30.85514 -28.4159,-54.60495 -52.13675,-73.31448 C 481.11481,341.25314 441.78386,326.47066 406.13524,305.90894 347.05097,273.29476 287.44402,241.43935 230.22936,205.60639 206.72753,190.36321 190.3147,171.82723 189.53274,145.57248 c -0.97191,-12.82066 -0.58601,-26.01494 2.43423,-38.5274 z"
           id="path3228"
           style="fill:#000000;fill-rule:evenodd;stroke:#000000;stroke-width:2.64037442;stroke-linecap:butt;stroke-linejoin:miter;stroke-miterlimit:4;stroke-dasharray:none;stroke-opacity:1"
           inkscape:connector-curvature="0" />
        <path
           d="m 201.67255,324.57948 c 8.6687,25.35135 12.31815,39.42521 50.12951,61.13372 47.94336,26.12749 155.01503,82.82974 232.06974,125.0552 34.24135,18.06742 55.0109,37.69004 78.07489,65.58352 15.78815,22.72796 25.25393,52.15226 19.66463,79.77606 -4.40247,14.6441 -6.50213,26.98458 -7.57332,3.69233 -5.44656,-30.85514 -28.4159,-54.60495 -52.13675,-73.31448 C 490.82039,558.78754 451.48944,544.00506 415.84082,523.44334 356.75655,490.82916 297.1496,458.97375 239.93494,423.14079 c -23.50183,-15.24318 -39.91466,-33.77916 -40.69662,-60.03391 -0.97191,-12.82066 -0.58601,-26.01494 2.43423,-38.5274 z"
           id="path3234"
           style="fill:#000000;fill-rule:evenodd;stroke:#000000;stroke-width:2.64037442;stroke-linecap:butt;stroke-linejoin:miter;stroke-miterlimit:4;stroke-dasharray:none;stroke-opacity:1"
           inkscape:connector-curvature="0" />
        <path
           d="m 197.96724,705.83628 c 9.21302,25.15866 13.16491,39.1506 51.43531,60.03922 48.49528,25.08824 156.76404,79.4699 234.71082,120.025 34.62275,17.32531 55.81035,36.49579 79.4701,63.88576 16.27427,22.38244 26.37195,51.59594 21.37925,79.33374 -4.08586,14.7355 -5.91909,27.1185 -7.49198,3.8547 -6.11023,-30.7306 -29.58606,-53.9799 -53.70459,-72.1739 C 492.09517,933.75875 452.45479,919.82729 416.37133,900.03858 356.59794,868.70526 296.31834,838.14179 238.34476,803.55014 214.5199,788.81697 197.71143,770.639 196.36385,744.40719 c -1.24798,-12.79674 -1.14651,-25.99626 1.60339,-38.57091 z"
           id="path3236"
           style="fill:#000000;fill-rule:evenodd;stroke:#000000;stroke-width:2.64037442;stroke-linecap:butt;stroke-linejoin:miter;stroke-miterlimit:4;stroke-dasharray:none;stroke-opacity:1"
           inkscape:connector-curvature="0" />
        <rect
           width="66.111313"
           height="7.8418169"
           x="395.02856"
           y="477.87875"
           id="rect3240"
           style="opacity:1;fill:#ffffff;fill-opacity:1;stroke:#000000;stroke-width:2.64037442;stroke-miterlimit:4;stroke-dasharray:none;stroke-opacity:1" />
        <rect
           width="66.113045"
           height="7.8290105"
           x="463.46332"
           y="477.90695"
           id="rect3244"
           style="opacity:1;fill:#000000;fill-opacity:1;stroke:#000000;stroke-width:2.64037442;stroke-miterlimit:4;stroke-dasharray:none;stroke-opacity:1" />
        <rect
           width="142.89159"
           height="7.6803184"
           x="287.60959"
           y="421.57556"
           id="rect3246"
           style="opacity:1;fill:#ffffff;fill-opacity:1;stroke:#000000;stroke-width:2.64037442;stroke-miterlimit:4;stroke-dasharray:none;stroke-opacity:1" />
        <rect
           width="133.32114"
           height="7.6540146"
           x="433.73322"
           y="421.67758"
           id="rect3248"
           style="opacity:1;fill:#000000;fill-opacity:1;stroke:#000000;stroke-width:2.64037442;stroke-miterlimit:4;stroke-dasharray:none;stroke-opacity:1" />
        <rect
           width="175.83025"
           height="7.7889433"
           x="213.51701"
           y="365.84857"
           id="rect3250"
           style="opacity:1;fill:#ffffff;fill-opacity:1;stroke:#000000;stroke-width:2.64037442;stroke-miterlimit:4;stroke-dasharray:none;stroke-opacity:1" />
        <rect
           width="143.66412"
           height="7.6955175"
           x="392.83578"
           y="366.12024"
           id="rect3252"
           style="opacity:1;fill:#000000;fill-opacity:1;stroke:#000000;stroke-width:2.64037442;stroke-miterlimit:4;stroke-dasharray:none;stroke-opacity:1" />
        <rect
           width="124.10288"
           height="7.8673568"
           x="217.31522"
           y="304.94443"
           id="rect3254"
           style="opacity:1;fill:#ffffff;fill-opacity:1;stroke:#000000;stroke-width:2.64037442;stroke-miterlimit:4;stroke-dasharray:none;stroke-opacity:1" />
        <rect
           width="110.75957"
           height="7.8360806"
           x="344.20963"
           y="305.07858"
           id="rect3256"
           style="opacity:1;fill:#000000;fill-opacity:1;stroke:#000000;stroke-width:2.64037442;stroke-miterlimit:4;stroke-dasharray:none;stroke-opacity:1" />
        <rect
           width="66.111313"
           height="7.8418169"
           x="231.98909"
           y="770.74579"
           id="rect3258"
           style="opacity:1;fill:#ffffff;fill-opacity:1;stroke:#000000;stroke-width:2.64037442;stroke-miterlimit:4;stroke-dasharray:none;stroke-opacity:1" />
        <rect
           width="66.113045"
           height="7.8290105"
           x="300.42386"
           y="770.77399"
           id="rect3260"
           style="opacity:1;fill:#000000;fill-opacity:1;stroke:#000000;stroke-width:2.64037442;stroke-miterlimit:4;stroke-dasharray:none;stroke-opacity:1" />
        <rect
           width="169.81041"
           height="7.8224254"
           x="247.34674"
           y="658.2793"
           id="rect3262"
           style="opacity:1;fill:#ffffff;fill-opacity:1;stroke:#000000;stroke-width:2.64037442;stroke-miterlimit:4;stroke-dasharray:none;stroke-opacity:1" />
        <rect
           width="138.74554"
           height="7.7285981"
           x="420.52625"
           y="658.55212"
           id="rect3264"
           style="opacity:1;fill:#000000;fill-opacity:1;stroke:#000000;stroke-width:2.64037442;stroke-miterlimit:4;stroke-dasharray:none;stroke-opacity:1" />
        <rect
           width="136.74275"
           height="7.8497901"
           x="202.60333"
           y="720.07343"
           id="rect3266"
           style="opacity:1;fill:#ffffff;fill-opacity:1;stroke:#000000;stroke-width:2.64037442;stroke-miterlimit:4;stroke-dasharray:none;stroke-opacity:1" />
        <rect
           width="122.0341"
           height="7.8460698"
           x="342.44855"
           y="720.17554"
           id="rect3268"
           style="opacity:1;fill:#000000;fill-opacity:1;stroke:#000000;stroke-width:2.64037442;stroke-miterlimit:4;stroke-dasharray:none;stroke-opacity:1" />
        <rect
           width="121.14291"
           height="7.8841705"
           x="327.40952"
           y="601.41791"
           id="rect3274"
           style="opacity:1;fill:#ffffff;fill-opacity:1;stroke:#000000;stroke-width:2.64037442;stroke-miterlimit:4;stroke-dasharray:none;stroke-opacity:1" />
        <rect
           width="108.11289"
           height="7.8837228"
           x="451.2908"
           y="601.51788"
           id="rect3276"
           style="opacity:1;fill:#000000;fill-opacity:1;stroke:#000000;stroke-width:2.64037442;stroke-miterlimit:4;stroke-dasharray:none;stroke-opacity:1" />
        <path
           d="m 575.68556,25.822581 c -8.6687,25.351346 -12.31815,39.425212 -50.12951,61.133715 -47.94336,26.127494 -155.01503,82.829744 -232.06974,125.055204 -34.24135,18.06742 -55.0109,37.69004 -78.07489,65.58352 -15.78815,22.72796 -25.25393,52.15226 -19.66463,79.77606 4.40247,14.6441 6.50213,26.98458 7.57332,3.69233 5.44656,-30.85514 28.4159,-54.60495 52.13675,-73.31448 31.08086,-27.71829 70.41181,-42.50077 106.06043,-63.06249 59.08427,-32.61418 118.69122,-64.46959 175.90588,-100.30255 23.50183,-15.24318 39.91466,-33.779157 40.69662,-60.033906 0.97191,-12.82066 0.58601,-26.014939 -2.43423,-38.527403 z"
           id="path3225"
           style="fill:#ffffff;fill-opacity:1;fill-rule:evenodd;stroke:#000000;stroke-width:2.64037442;stroke-linecap:butt;stroke-linejoin:miter;stroke-miterlimit:4;stroke-dasharray:none;stroke-opacity:1"
           inkscape:connector-curvature="0" />
        <path
           d="m 572.00083,409.15669 c -8.6687,25.35134 -12.31815,39.42521 -50.12951,61.13371 -47.94336,26.1275 -155.01503,82.82975 -232.06974,125.05521 -34.24135,18.06742 -55.0109,37.69004 -78.07489,65.58352 -15.78815,22.72796 -25.25393,52.15226 -19.66463,79.77606 4.40247,14.6441 6.50213,26.98458 7.57332,3.69233 5.44656,-30.85514 28.4159,-54.60495 52.13675,-73.31448 31.08086,-27.71829 70.41181,-42.50077 106.06043,-63.06249 59.08427,-32.61418 118.69122,-64.46959 175.90588,-100.30255 23.50183,-15.24318 39.91466,-33.77916 40.69662,-60.03391 0.97191,-12.82066 0.58601,-26.01494 -2.43423,-38.5274 z"
           id="path3230"
           style="fill:#ffffff;fill-opacity:1;fill-rule:evenodd;stroke:#000000;stroke-width:2.64037442;stroke-linecap:butt;stroke-linejoin:miter;stroke-miterlimit:4;stroke-dasharray:none;stroke-opacity:1"
           inkscape:connector-curvature="0" />
        <path
           d="m 578.38684,611.81518 c -7.90269,25.60047 -11.12741,39.77769 -48.26909,62.61304 -47.13627,27.55694 -152.45499,87.45228 -228.20552,131.97503 -33.68274,19.0886 -53.85302,39.32671 -76.06807,67.90092 -15.09778,23.1923 -23.67475,52.88786 -17.25756,80.33115 4.8407,14.50514 7.31038,26.77692 7.68089,3.463 4.51655,-31.00493 26.76156,-55.4345 49.90925,-74.84865 30.23357,-28.6401 69.10236,-44.59824 104.11675,-66.22231 58.07714,-34.3756 116.69953,-68.00848 172.81114,-105.5452 23.03298,-15.94278 38.88117,-34.96378 38.87353,-61.23017 0.58606,-12.84408 -0.1963,-26.0208 -3.59132,-38.43681 z"
           id="path3238"
           style="fill:#ffffff;fill-opacity:1;fill-rule:evenodd;stroke:#000000;stroke-width:2.64037442;stroke-linecap:butt;stroke-linejoin:miter;stroke-miterlimit:4;stroke-dasharray:none;stroke-opacity:1"
           inkscape:connector-curvature="0" />
      </g>
    </g>
    <path
       d="m 919.81303,366.8378 v -65.57661 h 22.58949 c 5.09934,7e-5 8.99101,0.31319 11.67494,0.93936 3.75738,0.86489 6.96317,2.43049 9.61728,4.69685 3.45923,2.92251 6.03876,6.66505 7.73858,11.22763 1.72954,4.53285 2.59439,9.72172 2.59447,15.56661 -8e-5,4.98017 -0.58158,9.39368 -1.74449,13.24057 -1.16315,3.84695 -2.65418,7.03779 -4.47318,9.57259 -1.81921,2.50498 -3.81717,4.48807 -5.99408,5.9493 -2.14718,1.43142 -4.75651,2.51989 -7.82803,3.26541 -3.04177,0.74553 -6.54577,1.11829 -10.51193,1.11829 h -23.66305 m 8.67794,-7.73858 h 14.001 c 4.32402,0 7.70869,-0.40257 10.15409,-1.20774 2.47513,-0.80516 4.44328,-1.93836 5.90456,-3.39961 2.05767,-2.05764 3.65308,-4.81609 4.78627,-8.27535 1.163,-3.48906 1.74448,-7.70874 1.74455,-12.65907 -7e-5,-6.85881 -1.13324,-12.12223 -3.3996,-15.79027 -2.23663,-3.69777 -4.96523,-6.17292 -8.18589,-7.42546 -2.32605,-0.89458 -6.06866,-1.34189 -11.22763,-1.34195 h -13.77735 v 50.09945 m 57.70381,7.73858 v -65.57661 h 47.41552 v 7.73858 h -38.73757 v 20.08451 h 36.27737 v 7.69385 h -36.27737 v 22.32109 h 40.25847 v 7.73858 h -48.93642"
       id="text2379"
       style="font-style:normal;font-weight:normal;font-size:254.77459717px;font-family:'Bitstream Vera Sans';fill:#000000;fill-opacity:1;stroke:none;stroke-width:1px;stroke-linecap:butt;stroke-linejoin:miter;stroke-opacity:1"
       inkscape:connector-curvature="0" />
    <path
       d="m 172.94904,333.40659 12.3345,-1.07842 c 0.5842,4.9428 1.9322,9.00936 4.0441,12.19971 2.1569,3.14541 5.482,5.70666 9.9755,7.68377 4.4934,1.9322 9.5485,2.89828 15.1653,2.89827 4.9877,1e-5 9.3913,-0.74139 13.2108,-2.22427 3.8193,-1.48281 6.6502,-3.50485 8.4926,-6.06612 1.8871,-2.6062 2.8308,-5.43706 2.8308,-8.49263 0,-3.10043 -0.8987,-5.79652 -2.696,-8.08819 -1.7975,-2.33655 -4.7632,-4.2912 -8.8971,-5.86393 -2.6511,-1.03345 -8.5151,-2.62864 -17.5918,-4.78552 -9.0768,-2.20174 -15.435,-4.26872 -19.0747,-6.20098 -4.7181,-2.47132 -8.2454,-5.52686 -10.582,-9.1666 -2.2917,-3.68456 -3.4375,-7.79605 -3.4375,-12.33449 0,-4.98766 1.4154,-9.63836 4.2463,-13.95214 2.8309,-4.35854 6.9648,-7.66124 12.4019,-9.90806 5.4371,-2.24661 11.4807,-3.36996 18.1311,-3.37008 7.3242,1.2e-4 13.7723,1.19088 19.3442,3.57229 5.6168,2.33669 9.9305,5.79664 12.9412,10.37986 3.0105,4.5834 4.6281,9.7733 4.8529,15.56978 l -12.5367,0.94362 c -0.6741,-6.24583 -2.9658,-10.96392 -6.875,-14.15433 -3.8644,-3.19028 -9.5935,-4.78546 -17.1874,-4.78554 -7.9085,8e-5 -13.6826,1.46046 -17.3223,4.38112 -3.5947,2.87586 -5.3921,6.35829 -5.3921,10.44726 0,3.54988 1.2806,6.47061 3.8419,8.7622 2.5163,2.29172 9.0767,4.65078 19.6813,7.07716 10.6494,2.3816 17.9512,4.47101 21.9055,6.26836 5.7516,2.6512 9.9979,6.02126 12.7389,10.11025 2.741,4.04415 4.1114,8.7173 4.1115,14.01955 -1e-4,5.25734 -1.5054,10.22259 -4.5159,14.89576 -3.0107,4.62826 -7.3468,8.24546 -13.0085,10.85166 -5.6168,2.56126 -11.9526,3.84189 -19.0072,3.84189 -8.942,0 -16.4461,-1.30308 -22.5122,-3.90928 -6.0212,-2.60621 -10.7618,-6.5155 -14.2217,-11.72788 -3.4151,-5.25732 -5.2125,-11.18866 -5.3922,-17.79405 m 99.35,31.74617 v -98.85389 h 12.1323 v 98.85389 h -12.1323 m 0.6191,-109.83255 8.9644,-18.87241 h 15.9068 l -14.8284,18.87241 h -10.0428 m 34.8342,109.83255 v -98.81079 h 13.4129 l 51.8993,77.57928 v -77.57928 h 12.5367 v 98.81079 h -13.4129 l -51.8993,-77.64669 v 77.64669 h -12.5367 m 99.8893,0 v -98.81079 h 34.0378 c 7.6837,8e-5 13.5477,0.47189 17.5918,1.41542 5.6617,1.3032 10.4921,3.66224 14.4914,7.07718 5.2123,4.40366 9.0991,10.04293 11.6605,16.9178 2.6061,6.83012 3.9091,14.64871 3.9092,23.45578 -10e-5,7.50407 -0.8763,14.15439 -2.6286,19.95087 -1.7526,5.79657 -3.9993,10.60456 -6.7402,14.42397 -2.7411,3.77452 -5.7517,6.76263 -9.0318,8.96442 -3.2354,2.15685 -7.1671,3.79695 -11.7953,4.9203 -4.5834,1.12338 -9.8631,1.68505 -15.8394,1.68505 h -35.6554 m 13.0759,-11.66047 h 21.0967 c 6.5154,10e-6 11.6155,-0.60663 15.3002,-1.81986 3.7295,-1.2132 6.6951,-2.92072 8.897,-5.12253 3.1004,-3.10045 5.5044,-7.25689 7.212,-12.4693 1.7523,-5.25729 2.6286,-11.61549 2.6286,-19.07465 0,-10.33486 -1.7076,-18.26579 -5.1225,-23.79278 -3.3702,-5.5718 -7.4816,-9.30133 -12.3345,-11.18868 -3.505,-1.34793 -9.1442,-2.02197 -16.9178,-2.02204 h -20.7597 v 75.48984 m 86.8807,11.66047 v -98.81079 h 43.8111 c 8.807,8e-5 15.5022,0.89877 20.0856,2.69605 4.5833,1.75255 8.2454,4.87548 10.9865,9.36883 2.7409,4.49353 4.1114,9.45877 4.1115,14.89575 -10e-5,7.00986 -2.2693,12.91873 -6.8076,17.72666 -4.5384,4.80803 -11.5482,7.86353 -21.0293,9.16659 3.4599,1.66265 6.0885,3.30272 7.886,4.92032 3.8194,3.50494 7.4366,7.88603 10.8517,13.14333 l 17.1874,26.89326 h -16.446 l -13.076,-20.5575 c -3.8194,-5.93131 -6.9648,-10.46968 -9.4362,-13.61513 -2.4714,-3.14537 -4.6957,-5.34715 -6.6727,-6.60535 -1.9323,-1.25814 -3.9094,-2.13434 -5.9314,-2.62869 -1.4828,-0.31449 -3.9093,-0.47177 -7.2794,-0.4718 h -15.1653 v 43.87847 h -13.0759 m 13.0759,-55.20194 h 28.1065 c 5.9762,7e-5 10.6494,-0.60657 14.0195,-1.81987 3.37,-1.25807 5.9313,-3.23518 7.6838,-5.93132 1.7524,-2.74094 2.6286,-5.7066 2.6286,-8.89703 0,-4.67308 -1.7075,-8.515 -5.1225,-11.52568 -3.3701,-3.01049 -8.7173,-4.51581 -16.0416,-4.5159 h -31.2743 v 32.6898 m 82.4996,7.07717 c 0,-16.40101 4.4036,-29.22977 13.2107,-38.48633 8.8072,-9.30132 20.1755,-13.95202 34.1053,-13.95215 9.1216,1.3e-4 17.3446,2.17942 24.669,6.53797 7.3242,4.35872 12.8961,10.44732 16.7156,18.26583 3.8643,7.77375 5.7965,16.60333 5.7965,26.48885 0,10.02043 -2.0221,18.98482 -6.0661,26.89326 -4.0443,7.90848 -9.7734,13.90721 -17.1874,17.99623 -7.4143,4.04409 -15.4126,6.06615 -23.995,6.06615 -9.3015,0 -17.6143,-2.24671 -24.9386,-6.74016 -7.3244,-4.49343 -12.8738,-10.62697 -16.6482,-18.40063 -3.7746,-7.77365 -5.6618,-15.99664 -5.6618,-24.66902 m 13.4804,0.20219 c 0,11.90766 3.1903,21.29898 9.571,28.17392 6.4256,6.83003 14.4688,10.24505 24.1298,10.24505 9.8406,0 17.9287,-3.45994 24.2646,-10.37987 6.3805,-6.91988 9.5709,-16.73803 9.571,-29.45452 -1e-4,-8.04321 -1.3706,-15.05296 -4.1115,-21.02932 -2.6962,-6.02113 -6.6728,-10.67183 -11.9301,-13.95211 -5.2124,-3.32508 -11.0763,-4.98765 -17.5918,-4.98775 -9.2566,1e-4 -17.2324,3.19044 -23.9276,9.57102 -6.6503,6.33586 -9.9754,16.94035 -9.9754,31.81358 m 97.39528,47.92258 v -98.81079 h 19.68131 l 23.38834,69.96289 c 2.15682,6.51551 3.72952,11.39087 4.71814,14.62616 1.12334,-3.59473 2.8757,-8.87453 5.25728,-15.8394 l 23.65804,-68.74965 h 17.59182 v 98.81079 h -12.60412 v -82.7018 l -28.71314,82.7018 h -11.79527 l -28.57829,-84.11725 v 84.11725 h -12.60411 m 115.79605,0 v -98.81079 h 71.44575 v 11.66048 H 842.9214 v 30.26334 h 54.66273 v 11.59308 H 842.9214 v 33.63342 h 60.66144 v 11.66047 h -73.73737"
       id="path2428"
       style="font-style:normal;font-variant:normal;font-weight:normal;font-stretch:normal;font-size:450.49331665px;font-family:Arial;-inkscape-font-specification:Arial;fill:#000000;fill-opacity:1;stroke:none;stroke-width:5.60551167;stroke-linecap:butt;stroke-linejoin:miter;stroke-miterlimit:4;stroke-dasharray:none;stroke-opacity:1"
       inkscape:connector-curvature="0" />
    <path
       d="m 170.84844,254.67366 v -55.196 h 39.9099 v 6.51356 h -32.6056 v 16.90518 h 30.5347 v 6.47593 h -30.5347 v 18.78773 h 33.8857 v 6.5136 h -41.19"
       id="path2437"
       style="font-style:normal;font-weight:normal;font-size:254.77459717px;font-family:'Bitstream Vera Sans';fill:#000000;fill-opacity:1;stroke:none;stroke-width:1px;stroke-linecap:butt;stroke-linejoin:miter;stroke-opacity:1"
       inkscape:connector-curvature="0" />
    <path
       d="m 221.90294,254.67366 v -55.196 h 7.3042 v 48.6824 h 27.1839 v 6.5136 h -34.4881"
       id="text2387"
       style="font-style:normal;font-weight:normal;font-size:254.77459717px;font-family:'Bitstream Vera Sans';fill:#000000;fill-opacity:1;stroke:none;stroke-width:1px;stroke-linecap:butt;stroke-linejoin:miter;stroke-opacity:1"
       inkscape:connector-curvature="0" />
    <path
       d="M 112.44864,551.76277 50.007548,406.31784 v 115.48913 c -1e-4,10.62269 1.0724,17.25118 3.2173,19.88556 2.9393,3.56921 7.5867,5.35378 13.9421,5.35378 h 5.7198 v 4.71646 h -56.2448 v -4.71646 h 5.7198 c 6.832,0 11.678,-2.20948 14.5379,-6.62851 1.7476,-2.71935 2.6215,-8.92296 2.6215,-18.61083 V 408.86726 c 0,-7.64814 -0.7944,-13.1719 -2.3832,-16.57129 -1.1122,-2.46429 -3.1777,-4.50383 -6.1965,-6.11863 -2.9393,-1.69946 -7.7058,-2.54927 -14.2995,-2.54943 v -4.71645 h 45.7585 l 58.627892,135.24724 57.6747,-135.24724 h 45.7584 v 4.71645 h -5.6006 c -6.9116,1.6e-4 -11.7973,2.20967 -14.657,6.62851 -1.7479,2.71956 -2.6218,8.92317 -2.6216,18.61084 v 112.93971 c -2e-4,10.62269 1.112,17.25118 3.3366,19.88556 2.9391,3.56921 7.5864,5.35378 13.942,5.35378 h 5.6006 v 4.71646 h -68.6376 v -4.71646 h 5.7198 c 6.9113,0 11.7572,-2.20948 14.5378,-6.62851 1.7476,-2.71935 2.6214,-8.92296 2.6216,-18.61083 V 406.31784 l -62.322,145.44493 h -3.9324 m 228.673,-57.87205 h -62.5603 l -10.963,27.27893 c -2.701,6.71349 -4.0516,11.72737 -4.0515,15.0416 -10e-5,2.63443 1.1519,4.97141 3.4557,7.01096 2.3832,1.95453 7.4675,3.22926 15.2528,3.8241 v 4.71646 h -50.8824 v -4.71646 c 6.7525,-1.27466 11.1218,-2.93183 13.1079,-4.97133 4.0515,-4.07909 8.5399,-12.36472 13.4653,-24.85695 l 56.8406,-142.25818 h 4.1707 l 56.2447,143.78785 c 4.5281,11.5574 8.6193,19.07819 12.2737,22.56243 3.7337,3.39927 8.8974,5.31131 15.4912,5.73618 v 4.71646 h -63.752 v -4.71646 c 6.4347,-0.33991 10.7642,-1.48712 12.9887,-3.4417 2.3037,-1.95453 3.4556,-4.33403 3.4557,-7.13841 -1e-4,-3.73915 -1.5889,-9.64531 -4.7664,-17.7185 l -9.7714,-24.85698 m -3.3365,-9.4329 -27.4075,-69.85435 -28.1223,69.85435 h 55.5298 m 232.9628,67.30495 h -43.1368 l -54.6957,-80.8169 c -4.0516,0.17004 -7.3484,0.25503 -9.8905,0.25495 -1.0327,8e-5 -2.145,8e-5 -3.3365,0 -1.1917,-0.0849 -2.4231,-0.16989 -3.6941,-0.25495 v 50.22378 c 0,10.87755 1.1122,17.63356 3.3366,20.26795 3.0187,3.73914 7.5469,5.60871 13.5845,5.60871 h 6.3157 v 4.71646 h -69.2335 v -4.71646 h 6.0773 c 6.832,0 11.7176,-2.37945 14.657,-7.13838 1.6682,-2.63439 2.5023,-8.88049 2.5024,-18.73828 V 409.50461 c -10e-5,-10.87739 -1.1122,-17.63339 -3.3366,-20.26796 -3.0982,-3.73899 -7.7059,-5.60858 -13.8228,-5.60874 h -6.0773 v -4.71645 h 58.8662 c 17.1594,1.8e-4 29.7906,1.35987 37.8938,4.07909 8.1824,2.63458 15.0938,7.56347 20.7342,14.78669 5.7197,7.13856 8.5796,15.67913 8.5798,25.62177 -2e-4,10.62274 -3.2572,19.84317 -9.7714,27.66131 -6.4349,7.81833 -16.4445,13.3421 -30.0289,16.57129 l 33.3655,49.58642 c 7.6263,11.38743 14.1802,18.95075 19.6618,22.6899 5.4814,3.73918 12.6311,6.11865 21.4493,7.13838 v 4.71646 m -114.7536,-88.84761 c 1.5093,9e-5 2.8202,0.0426 3.9324,0.12747 1.1122,1e-4 2.0257,1e-4 2.7407,0 15.4117,1e-4 27.0101,-3.56909 34.7955,-10.70761 7.8646,-7.13829 11.797,-16.23124 11.7971,-27.27888 -1e-4,-10.79245 -3.1778,-19.54549 -9.533,-26.25912 -6.2759,-6.79833 -14.6173,-10.19756 -25.0241,-10.19773 -4.6077,1.7e-4 -10.8439,0.80749 -18.7086,2.42197 v 71.8939 m 162.7761,-74.57081 v 67.94231 h 29.4331 c 6.7525,9e-5 11.6779,-1.57207 14.7762,-4.71645 3.1776,-3.22918 5.2828,-9.56027 6.3156,-18.99325 h 4.409 v 58.50943 h -4.409 c -0.0795,-6.71348 -0.9137,-11.64236 -2.5024,-14.78674 -1.5095,-3.1442 -3.6544,-5.48116 -6.4348,-7.01091 -2.7011,-1.61456 -6.7526,-2.42188 -12.1546,-2.42197 h -29.4331 v 54.30288 c -10e-5,8.75304 0.5163,14.53173 1.5491,17.33608 0.7944,2.12455 2.4626,3.95164 5.0048,5.48129 3.4954,2.03956 7.1497,3.05929 10.963,3.05929 h 5.839 v 4.71646 h -69.3527 v -4.71646 h 5.7198 c 6.6731,0 11.5191,-2.08198 14.5379,-6.24605 1.9066,-2.7194 2.8598,-9.2629 2.8599,-19.63061 V 409.50461 c -1e-4,-8.75288 -0.5165,-14.53158 -1.5491,-17.33611 -0.7945,-2.12438 -2.4231,-3.95145 -4.8857,-5.48128 -3.416,-2.03937 -7.0703,-3.05915 -10.963,-3.05931 h -5.7198 v -4.71645 h 120.2351 l 1.5491,37.9865 h -4.1707 c -2.0656,-8.07305 -4.4886,-13.97921 -7.2689,-17.71854 -2.7012,-3.82399 -6.0774,-6.58585 -10.1288,-8.28564 -3.9722,-1.69945 -10.1686,-2.54925 -18.5894,-2.54943 h -35.6296 m 179.45882,105.54637 h -62.5604 l -10.96293,27.27893 c -2.70108,6.71349 -4.05155,11.72737 -4.05147,15.0416 -8e-5,2.63443 1.15182,4.97141 3.45568,7.01096 2.3832,1.95453 7.46745,3.22926 15.25279,3.8241 v 4.71646 h -50.88239 v -4.71646 c 6.7525,-1.27466 11.1218,-2.93183 13.1078,-4.97133 4.0516,-4.07909 8.54004,-12.36472 13.46547,-24.85695 l 56.84048,-142.25818 h 4.17074 l 56.24474,143.78785 c 4.52799,11.5574 8.61918,19.07819 12.27367,22.56243 3.73363,3.39927 8.89735,5.31131 15.49113,5.73618 v 4.71646 H 796.3226 v -4.71646 c 6.43465,-0.33991 10.7643,-1.48712 12.98879,-3.4417 2.30363,-1.95453 3.45554,-4.33403 3.45568,-7.13841 -1.4e-4,-3.73915 -1.58898,-9.64531 -4.76651,-17.7185 l -9.7713,-24.85698 m -3.33658,-9.4329 -27.40741,-69.85435 -28.12234,69.85435 h 55.52975 m 64.82449,-105.54636 h 43.85181 l 98.78582,129.63849 v -99.68269 c -2e-4,-10.62248 -1.1124,-17.25098 -3.33657,-19.88555 -2.9395,-3.56904 -7.58687,-5.35364 -13.94199,-5.3538 h -5.60073 v -4.71645 h 56.24469 v 4.71645 h -5.7197 c -6.8321,1.6e-4 -11.6781,2.20967 -14.5378,6.62851 -1.7479,2.71956 -2.6218,8.92317 -2.6217,18.61084 v 145.69991 h -4.2898 L 902.01987,415.36831 v 106.43866 c -7e-5,10.62269 1.07237,17.25118 3.2174,19.88556 3.01869,3.56921 7.66608,5.35378 13.94204,5.35378 h 5.71976 v 4.71646 h -56.24474 v -4.71646 h 5.60065 c 6.91139,0 11.79709,-2.20948 14.65699,-6.62851 1.7477,-2.71935 2.62156,-8.92296 2.62156,-18.61083 V 401.60139 c -4.68705,-5.86353 -8.26192,-9.73017 -10.72456,-11.5999 -2.38333,-1.86943 -5.91849,-3.61153 -10.60554,-5.22634 -2.30379,-0.76467 -5.79921,-1.14708 -10.48626,-1.14724 v -4.71645"
       id="text2391"
       style="font-style:normal;font-weight:normal;font-size:701.96844482px;font-family:'Bitstream Vera Sans';fill:#000000;fill-opacity:1;stroke:none;stroke-width:1px;stroke-linecap:butt;stroke-linejoin:miter;stroke-opacity:1"
       inkscape:connector-curvature="0" />
  </g>
</svg>
